<svg aria-hidden="true" style="position: absolute; width: 0; height: 0; overflow: hidden;" version="1.1" xmlns="http://www.w3.org/2000/svg" xmlns:xlink="http://www.w3.org/1999/xlink">
<defs>
<symbol id="icon-click-icon" viewBox="0 0 40 32">
<path d="M33.782 1.020c0.658-0.631 1.553-1.020 2.539-1.020 0.009 0 0.018 0 0.028 0h-0.001c0.995 0.008 1.894 0.411 2.55 1.060l-0-0c0.681 0.672 1.076 1.584 1.101 2.543 0.001 0.030 0.001 0.064 0.001 0.099 0 0.964-0.367 1.842-0.97 2.502l0.003-0.003-19.578 24.618c-0.33 0.357-0.727 0.647-1.172 0.851l-0.023 0.009c-0.442 0.204-0.959 0.322-1.503 0.322-1.017 0-1.938-0.415-2.601-1.084l-0-0-12.984-13.054c-0.354-0.333-0.642-0.731-0.843-1.177l-0.009-0.023c-0.201-0.443-0.318-0.96-0.318-1.505 0-1.021 0.412-1.946 1.078-2.618l-0 0c0.34-0.342 0.747-0.618 1.2-0.805l0.024-0.009c0.408-0.17 0.881-0.269 1.378-0.269 0.543 0 1.058 0.118 1.521 0.33l-0.023-0.009c0.467 0.212 0.864 0.501 1.193 0.855l0.002 0.002 10.275 10.326 17.042-21.83c0.032-0.040 0.064-0.075 0.098-0.109l0-0h-0.005z"></path>
</symbol>
</defs>
</svg>
